<mxfile host="app.diagrams.net" modified="2021-07-15T09:58:51.618Z" agent="5.0 (Macintosh; Intel Mac OS X 10_15_7) AppleWebKit/537.36 (KHTML, like Gecko) Chrome/91.0.4472.124 Safari/537.36 Edg/91.0.864.67" etag="IrZDUkqI6wm4M2iQVn3p" version="14.8.6" type="github">
  <diagram id="U7mBUOs1ubf0Gw4fG0wP" name="Page-1">
    <mxGraphModel dx="658" dy="1573" grid="1" gridSize="10" guides="1" tooltips="1" connect="1" arrows="1" fold="1" page="1" pageScale="1" pageWidth="827" pageHeight="1169" math="0" shadow="0">
      <root>
        <mxCell id="0" />
        <mxCell id="1" parent="0" />
        <mxCell id="6A7Px7DXk7udETmb4YRx-1" value="" style="endArrow=none;html=1;strokeWidth=3;strokeColor=#CCCCCC;labelBackgroundColor=none;fontSize=16" edge="1" source="6A7Px7DXk7udETmb4YRx-2" target="6A7Px7DXk7udETmb4YRx-3" parent="1">
          <mxGeometry relative="1" as="geometry" />
        </mxCell>
        <mxCell id="6A7Px7DXk7udETmb4YRx-2" value="" style="ellipse;whiteSpace=wrap;html=1;aspect=fixed;shadow=0;fillColor=none;strokeColor=#333333;fontSize=16;align=center;strokeWidth=2;" vertex="1" parent="1">
          <mxGeometry x="334" y="-40" width="12" height="12" as="geometry" />
        </mxCell>
        <mxCell id="6A7Px7DXk7udETmb4YRx-3" value="" style="ellipse;whiteSpace=wrap;html=1;aspect=fixed;shadow=0;fillColor=none;strokeColor=#333333;fontSize=16;align=center;strokeWidth=2;" vertex="1" parent="1">
          <mxGeometry x="334" y="458" width="12" height="12" as="geometry" />
        </mxCell>
        <mxCell id="6A7Px7DXk7udETmb4YRx-4" value="" style="verticalLabelPosition=middle;verticalAlign=middle;html=1;shape=mxgraph.infographic.circularCallout2;dy=15;strokeColor=#10739E;labelPosition=center;align=center;fontColor=#10739E;fontStyle=1;fontSize=24;shadow=0;direction=north;" vertex="1" parent="1">
          <mxGeometry x="100" y="-10" width="246" height="60" as="geometry" />
        </mxCell>
        <mxCell id="6A7Px7DXk7udETmb4YRx-5" value="" style="verticalLabelPosition=middle;verticalAlign=middle;html=1;shape=mxgraph.infographic.circularCallout2;dy=15;strokeColor=#F2931E;labelPosition=center;align=center;fontColor=#F2931E;fontStyle=1;fontSize=24;shadow=0;direction=north;flipH=1;" vertex="1" parent="1">
          <mxGeometry x="334" y="60" width="246" height="60" as="geometry" />
        </mxCell>
        <mxCell id="6A7Px7DXk7udETmb4YRx-6" value="" style="verticalLabelPosition=middle;verticalAlign=middle;html=1;shape=mxgraph.infographic.circularCallout2;dy=15;strokeColor=#AE4132;labelPosition=center;align=center;fontColor=#10739E;fontStyle=1;fontSize=24;shadow=0;direction=north;" vertex="1" parent="1">
          <mxGeometry x="100" y="130" width="246" height="60" as="geometry" />
        </mxCell>
        <mxCell id="6A7Px7DXk7udETmb4YRx-7" value="" style="verticalLabelPosition=middle;verticalAlign=middle;html=1;shape=mxgraph.infographic.circularCallout2;dy=15;strokeColor=#23445D;labelPosition=center;align=center;fontColor=#10739E;fontStyle=1;fontSize=24;shadow=0;direction=north;flipH=1;" vertex="1" parent="1">
          <mxGeometry x="334" y="200" width="246" height="60" as="geometry" />
        </mxCell>
        <mxCell id="6A7Px7DXk7udETmb4YRx-8" value="" style="verticalLabelPosition=middle;verticalAlign=middle;html=1;shape=mxgraph.infographic.circularCallout2;dy=15;strokeColor=#12AAB5;labelPosition=center;align=center;fontColor=#10739E;fontStyle=1;fontSize=24;shadow=0;direction=north;" vertex="1" parent="1">
          <mxGeometry x="100" y="270" width="246" height="60" as="geometry" />
        </mxCell>
        <mxCell id="6A7Px7DXk7udETmb4YRx-9" value="" style="verticalLabelPosition=middle;verticalAlign=middle;html=1;shape=mxgraph.infographic.circularCallout2;dy=15;strokeColor=#56517E;labelPosition=center;align=center;fontColor=#10739E;fontStyle=1;fontSize=24;shadow=0;direction=north;flipH=1;" vertex="1" parent="1">
          <mxGeometry x="334" y="340" width="246" height="60" as="geometry" />
        </mxCell>
        <mxCell id="6A7Px7DXk7udETmb4YRx-10" value="Label" style="fillColor=#10739E;strokecolor=none;rounded=1;fontColor=#FFFFFF;strokeColor=none;fontStyle=1;fontSize=14;" vertex="1" parent="1">
          <mxGeometry x="170" y="-20" width="160" height="30" as="geometry" />
        </mxCell>
        <mxCell id="6A7Px7DXk7udETmb4YRx-11" value="Label" style="fillColor=#F2931E;strokecolor=none;rounded=1;fontColor=#FFFFFF;strokeColor=none;fontStyle=1;fontSize=14;" vertex="1" parent="1">
          <mxGeometry x="350" y="45" width="160" height="30" as="geometry" />
        </mxCell>
        <mxCell id="6A7Px7DXk7udETmb4YRx-12" value="Label" style="fillColor=#AE4132;strokecolor=none;rounded=1;fontColor=#FFFFFF;strokeColor=none;fontStyle=1;fontSize=14;" vertex="1" parent="1">
          <mxGeometry x="170" y="120" width="160" height="30" as="geometry" />
        </mxCell>
        <mxCell id="6A7Px7DXk7udETmb4YRx-13" value="Label" style="fillColor=#23445D;strokecolor=none;rounded=1;fontColor=#FFFFFF;strokeColor=none;fontStyle=1;fontSize=14;" vertex="1" parent="1">
          <mxGeometry x="350" y="185" width="160" height="30" as="geometry" />
        </mxCell>
        <mxCell id="6A7Px7DXk7udETmb4YRx-14" value="Label" style="fillColor=#12AAB5;strokecolor=none;rounded=1;fontColor=#FFFFFF;strokeColor=none;fontStyle=1;fontSize=14;" vertex="1" parent="1">
          <mxGeometry x="170" y="260" width="160" height="30" as="geometry" />
        </mxCell>
        <mxCell id="6A7Px7DXk7udETmb4YRx-15" value="Label" style="fillColor=#56517E;strokecolor=none;rounded=1;fontColor=#FFFFFF;strokeColor=none;fontStyle=1;fontSize=14;" vertex="1" parent="1">
          <mxGeometry x="350" y="325" width="160" height="30" as="geometry" />
        </mxCell>
        <mxCell id="6A7Px7DXk7udETmb4YRx-16" value="&lt;font style=&quot;font-size: 10px&quot;&gt;&lt;font style=&quot;font-size: 12px&quot; color=&quot;#10739E&quot;&gt;&lt;b&gt;Label&lt;/b&gt;&lt;/font&gt;&lt;br&gt;&lt;br&gt;&lt;font size=&quot;1&quot;&gt;Lorem ipsum dolor sit amet, consectetur adipisicing elit&lt;/font&gt;&lt;/font&gt;" style="rounded=1;strokeColor=none;fillColor=#EEEEEE;align=center;arcSize=12;verticalAlign=top;whiteSpace=wrap;html=1;fontSize=12;" vertex="1" parent="1">
          <mxGeometry x="170" y="30" width="160" height="70" as="geometry" />
        </mxCell>
        <mxCell id="6A7Px7DXk7udETmb4YRx-17" value="&lt;font style=&quot;font-size: 10px&quot;&gt;&lt;font style=&quot;font-size: 12px&quot; color=&quot;#F2931E&quot;&gt;&lt;b&gt;Label&lt;/b&gt;&lt;/font&gt;&lt;br&gt;&lt;br&gt;&lt;font size=&quot;1&quot;&gt;Lorem ipsum dolor sit amet, consectetur adipisicing elit&lt;/font&gt;&lt;/font&gt;" style="rounded=1;strokeColor=none;fillColor=#EEEEEE;align=center;arcSize=12;verticalAlign=top;whiteSpace=wrap;html=1;fontSize=12;" vertex="1" parent="1">
          <mxGeometry x="350" y="100" width="160" height="70" as="geometry" />
        </mxCell>
        <mxCell id="6A7Px7DXk7udETmb4YRx-18" value="&lt;font style=&quot;font-size: 10px&quot;&gt;&lt;font style=&quot;font-size: 12px&quot; color=&quot;#AE4132&quot;&gt;&lt;b&gt;Label&lt;/b&gt;&lt;/font&gt;&lt;br&gt;&lt;br&gt;&lt;font size=&quot;1&quot;&gt;Lorem ipsum dolor sit amet, consectetur adipisicing elit&lt;/font&gt;&lt;/font&gt;" style="rounded=1;strokeColor=none;fillColor=#EEEEEE;align=center;arcSize=12;verticalAlign=top;whiteSpace=wrap;html=1;fontSize=12;" vertex="1" parent="1">
          <mxGeometry x="170" y="170" width="160" height="70" as="geometry" />
        </mxCell>
        <mxCell id="6A7Px7DXk7udETmb4YRx-19" value="&lt;font style=&quot;font-size: 10px&quot;&gt;&lt;font style=&quot;font-size: 12px&quot; color=&quot;#23445D&quot;&gt;&lt;b&gt;Label&lt;/b&gt;&lt;/font&gt;&lt;br&gt;&lt;br&gt;&lt;font size=&quot;1&quot;&gt;Lorem ipsum dolor sit amet, consectetur adipisicing elit&lt;/font&gt;&lt;/font&gt;" style="rounded=1;strokeColor=none;fillColor=#EEEEEE;align=center;arcSize=12;verticalAlign=top;whiteSpace=wrap;html=1;fontSize=12;" vertex="1" parent="1">
          <mxGeometry x="350" y="240" width="160" height="70" as="geometry" />
        </mxCell>
        <mxCell id="6A7Px7DXk7udETmb4YRx-20" value="&lt;font style=&quot;font-size: 10px&quot;&gt;&lt;font style=&quot;font-size: 12px&quot; color=&quot;#12AAB5&quot;&gt;&lt;b&gt;Label&lt;/b&gt;&lt;/font&gt;&lt;br&gt;&lt;br&gt;&lt;font size=&quot;1&quot;&gt;Lorem ipsum dolor sit amet, consectetur adipisicing elit&lt;/font&gt;&lt;/font&gt;" style="rounded=1;strokeColor=none;fillColor=#EEEEEE;align=center;arcSize=12;verticalAlign=top;whiteSpace=wrap;html=1;fontSize=12;" vertex="1" parent="1">
          <mxGeometry x="170" y="310" width="160" height="70" as="geometry" />
        </mxCell>
        <mxCell id="6A7Px7DXk7udETmb4YRx-21" value="&lt;font style=&quot;font-size: 10px&quot;&gt;&lt;font style=&quot;font-size: 12px&quot; color=&quot;#56517E&quot;&gt;&lt;b&gt;Label&lt;/b&gt;&lt;/font&gt;&lt;br&gt;&lt;br&gt;&lt;font size=&quot;1&quot;&gt;Lorem ipsum dolor sit amet, consectetur adipisicing elit&lt;/font&gt;&lt;/font&gt;" style="rounded=1;strokeColor=none;fillColor=#EEEEEE;align=center;arcSize=12;verticalAlign=top;whiteSpace=wrap;html=1;fontSize=12;" vertex="1" parent="1">
          <mxGeometry x="350" y="380" width="160" height="70" as="geometry" />
        </mxCell>
      </root>
    </mxGraphModel>
  </diagram>
</mxfile>
